{
  "title" : "",
  "description" : "",
  "author" : "",
  "targetLoudness" : -18.0,
  "shouldApplyLoudnessNormalization" : true,
  "videoFormatFrameRate" : 30,
  "audioFormatSampleRate" : 44100,
  "width" : 1920.0,
  "height" : 1080.0,
  "version" : "4.0",
  "editRate" : 30,
  "authoringClientName" :  {
    "name" : "Camtasia",
    "platform" : "Mac",
    "version" : "2020.0.7"
  },
  "sourceBin" : [
    {
      "id" : 1,
      "src" : "./recordings/1655717671.649870/Rec 6-20-2022 2.trec",
      "rect" : [0, 0, 1920, 1080],
      "lastMod" : "20220620T093329",
      "sourceTracks" : [
        {
          "range" : [0, 2580],
          "type" : 0,
          "editRate" : 30,
          "trackRect" : [0, 0, 1920, 1080],
          "sampleRate" : 30,
          "bitDepth" : 0,
          "numChannels" : 0,
          "integratedLUFS" : 100.0,
          "peakLevel" : -1.0,
          "metaData" : "2b7b6a01-7a1f-11e2-83d0-0017f200be7f;2b7b6af0-7a1f-11e2-83d0-0017f200be7f;2b7b6af1-7a1f-11e2-83d0-0017f200be7f;2b7b6af2-7a1f-11e2-83d0-0017f200be7f;2b7b6af3-7a1f-11e2-83d0-0017f200be7f;2b7b6af5-7a1f-11e2-83d0-0017f200be7f;2b7b6af6-7a1f-11e2-83d0-0017f200be7f;2b7b6af7-7a1f-11e2-83d0-0017f200be7f;2b7b6af8-7a1f-11e2-83d0-0017f200be7f;2b7b6af9-7a1f-11e2-83d0-0017f200be7f;2b7b6afa-7a1f-11e2-83d0-0017f200be7f;2b7b6afb-7a1f-11e2-83d0-0017f200be7f;2b7b6afc-7a1f-11e2-83d0-0017f200be7f;"
        }
      ],
      "metadata" : {
        "timeAdded" : "20220620T093329.744189"
      }
    },
    {
      "id" : 2,
      "src" : "./media/1655718908.657099/frame.png",
      "rect" : [0, 0, 1920, 1080],
      "lastMod" : "20220620T095508",
      "sourceTracks" : [
        {
          "range" : [0, 1],
          "type" : 1,
          "editRate" : 600,
          "trackRect" : [0, 0, 1920, 1080],
          "sampleRate" : 0,
          "bitDepth" : 0,
          "numChannels" : 0,
          "integratedLUFS" : 100.0,
          "peakLevel" : -1.0,
          "metaData" : ""
        }
      ],
      "metadata" : {
        "timeAdded" : "20220620T095508.781531"
      }
    },
    {
      "id" : 3,
      "src" : "./media/1655718989.548150/frame.png",
      "rect" : [0, 0, 1920, 1080],
      "lastMod" : "20220620T095629",
      "sourceTracks" : [
        {
          "range" : [0, 1],
          "type" : 1,
          "editRate" : 600,
          "trackRect" : [0, 0, 1920, 1080],
          "sampleRate" : 0,
          "bitDepth" : 0,
          "numChannels" : 0,
          "integratedLUFS" : 100.0,
          "peakLevel" : -1.0,
          "metaData" : ""
        }
      ],
      "metadata" : {
        "timeAdded" : "20220620T095629.667837"
      }
    },
    {
      "id" : 4,
      "src" : "./media/1655719170.594958/frame.png",
      "rect" : [0, 0, 1920, 1080],
      "lastMod" : "20220620T095930",
      "sourceTracks" : [
        {
          "range" : [0, 1],
          "type" : 1,
          "editRate" : 600,
          "trackRect" : [0, 0, 1920, 1080],
          "sampleRate" : 0,
          "bitDepth" : 0,
          "numChannels" : 0,
          "integratedLUFS" : 100.0,
          "peakLevel" : -1.0,
          "metaData" : ""
        }
      ],
      "metadata" : {
        "timeAdded" : "20220620T095930.718387"
      }
    },
    {
      "id" : 5,
      "src" : "./media/1655719225.113664/frame.png",
      "rect" : [0, 0, 1920, 1080],
      "lastMod" : "20220620T100025",
      "sourceTracks" : [
        {
          "range" : [0, 1],
          "type" : 1,
          "editRate" : 600,
          "trackRect" : [0, 0, 1920, 1080],
          "sampleRate" : 0,
          "bitDepth" : 0,
          "numChannels" : 0,
          "integratedLUFS" : 100.0,
          "peakLevel" : -1.0,
          "metaData" : ""
        }
      ],
      "metadata" : {
        "timeAdded" : "20220620T100025.239740"
      }
    },
    {
      "id" : 6,
      "src" : "./media/1655719347.764211/frame.png",
      "rect" : [0, 0, 1920, 1080],
      "lastMod" : "20220620T100227",
      "sourceTracks" : [
        {
          "range" : [0, 1],
          "type" : 1,
          "editRate" : 600,
          "trackRect" : [0, 0, 1920, 1080],
          "sampleRate" : 0,
          "bitDepth" : 0,
          "numChannels" : 0,
          "integratedLUFS" : 100.0,
          "peakLevel" : -1.0,
          "metaData" : ""
        }
      ],
      "metadata" : {
        "timeAdded" : "20220620T100227.880824"
      }
    },
    {
      "id" : 7,
      "src" : "./media/1655719460.401156/frame.png",
      "rect" : [0, 0, 1920, 1080],
      "lastMod" : "20220620T100420",
      "sourceTracks" : [
        {
          "range" : [0, 1],
          "type" : 1,
          "editRate" : 600,
          "trackRect" : [0, 0, 1920, 1080],
          "sampleRate" : 0,
          "bitDepth" : 0,
          "numChannels" : 0,
          "integratedLUFS" : 100.0,
          "peakLevel" : -1.0,
          "metaData" : ""
        }
      ],
      "metadata" : {
        "timeAdded" : "20220620T100420.494464"
      }
    },
    {
      "id" : 8,
      "src" : "./media/1655719601.221459/frame.png",
      "rect" : [0, 0, 1920, 1080],
      "lastMod" : "20220620T100641",
      "sourceTracks" : [
        {
          "range" : [0, 1],
          "type" : 1,
          "editRate" : 600,
          "trackRect" : [0, 0, 1920, 1080],
          "sampleRate" : 0,
          "bitDepth" : 0,
          "numChannels" : 0,
          "integratedLUFS" : 100.0,
          "peakLevel" : -1.0,
          "metaData" : ""
        }
      ],
      "metadata" : {
        "timeAdded" : "20220620T100641.345607"
      }
    }
  ],
  "timeline" : {
    "id" : 9,
    "sceneTrack" : {
      "scenes" : [
        {
          "csml" : {
            "tracks" : [
              {
                "trackIndex" : 0,
                "medias" : [
                  {
                    "id" : 10,
                    "_type" : "ScreenVMFile",
                    "src" : 1,
                    "trackNumber" : 0,
                    "attributes" : {
                      "ident" : "Rec 6-20-2022 2"
                    },
                    "parameters" : {
                      "sourceCrop0" : {
                        "type" : "double",
                        "defaultValue" : 0.0,
                        "interp" : "eioe"
                      },
                      "sourceCrop1" : {
                        "type" : "double",
                        "defaultValue" : 0.0,
                        "interp" : "eioe"
                      },
                      "sourceCrop2" : {
                        "type" : "double",
                        "defaultValue" : 0.0,
                        "interp" : "eioe"
                      },
                      "sourceCrop3" : {
                        "type" : "double",
                        "defaultValue" : 0.0,
                        "interp" : "eioe"
                      },
                      "geometryCrop0" : {
                        "type" : "double",
                        "defaultValue" : 0.0,
                        "interp" : "eioe"
                      },
                      "geometryCrop1" : {
                        "type" : "double",
                        "defaultValue" : 0.0,
                        "interp" : "eioe"
                      },
                      "geometryCrop2" : {
                        "type" : "double",
                        "defaultValue" : 0.0,
                        "interp" : "eioe"
                      },
                      "geometryCrop3" : {
                        "type" : "double",
                        "defaultValue" : 0.0,
                        "interp" : "eioe"
                      },
                      "cursorScale" : {
                        "type" : "double",
                        "defaultValue" : 1.0,
                        "interp" : "linr"
                      },
                      "cursorOpacity" : {
                        "type" : "double",
                        "defaultValue" : 1.0,
                        "interp" : "linr"
                      }
                    },
                    "effects" : [

                    ],
                    "start" : 0,
                    "duration" : 271,
                    "mediaStart" : 0,
                    "mediaDuration" : 271,
                    "scalar" : 1,
                    "metadata" : {
                      "clipSpeedAttribute" : false,
                      "default-scale" : "1",
                      "effectApplied" : "none",
                      "lockAspectRatio" : true
                    },
                    "animationTracks" : {

                    }
                  },
                  {
                    "id" : 11,
                    "_type" : "IMFile",
                    "src" : 2,
                    "trackNumber" : 0,
                    "trimStartSum" : 0,
                    "attributes" : {
                      "ident" : "frame"
                    },
                    "parameters" : {
                      "sourceCrop0" : {
                        "type" : "double",
                        "defaultValue" : 0.0,
                        "interp" : "eioe"
                      },
                      "sourceCrop1" : {
                        "type" : "double",
                        "defaultValue" : 0.0,
                        "interp" : "eioe"
                      },
                      "sourceCrop2" : {
                        "type" : "double",
                        "defaultValue" : 0.0,
                        "interp" : "eioe"
                      },
                      "sourceCrop3" : {
                        "type" : "double",
                        "defaultValue" : 0.0,
                        "interp" : "eioe"
                      },
                      "geometryCrop0" : {
                        "type" : "double",
                        "defaultValue" : 0.0,
                        "interp" : "eioe"
                      },
                      "geometryCrop1" : {
                        "type" : "double",
                        "defaultValue" : 0.0,
                        "interp" : "eioe"
                      },
                      "geometryCrop2" : {
                        "type" : "double",
                        "defaultValue" : 0.0,
                        "interp" : "eioe"
                      },
                      "geometryCrop3" : {
                        "type" : "double",
                        "defaultValue" : 0.0,
                        "interp" : "eioe"
                      }
                    },
                    "effects" : [

                    ],
                    "start" : 271,
                    "duration" : 150,
                    "mediaStart" : 0,
                    "mediaDuration" : 1,
                    "scalar" : 1,
                    "metadata" : {
                      "clipSpeedAttribute" : false,
                      "default-scale" : "1",
                      "effectApplied" : "none",
                      "lockAspectRatio" : true
                    },
                    "animationTracks" : {

                    }
                  },
                  {
                    "id" : 12,
                    "_type" : "ScreenVMFile",
                    "src" : 1,
                    "trackNumber" : 0,
                    "attributes" : {
                      "ident" : "Rec 6-20-2022 2"
                    },
                    "parameters" : {
                      "sourceCrop0" : {
                        "type" : "double",
                        "defaultValue" : 0.0,
                        "interp" : "eioe"
                      },
                      "sourceCrop1" : {
                        "type" : "double",
                        "defaultValue" : 0.0,
                        "interp" : "eioe"
                      },
                      "sourceCrop2" : {
                        "type" : "double",
                        "defaultValue" : 0.0,
                        "interp" : "eioe"
                      },
                      "sourceCrop3" : {
                        "type" : "double",
                        "defaultValue" : 0.0,
                        "interp" : "eioe"
                      },
                      "geometryCrop0" : {
                        "type" : "double",
                        "defaultValue" : 0.0,
                        "interp" : "eioe"
                      },
                      "geometryCrop1" : {
                        "type" : "double",
                        "defaultValue" : 0.0,
                        "interp" : "eioe"
                      },
                      "geometryCrop2" : {
                        "type" : "double",
                        "defaultValue" : 0.0,
                        "interp" : "eioe"
                      },
                      "geometryCrop3" : {
                        "type" : "double",
                        "defaultValue" : 0.0,
                        "interp" : "eioe"
                      },
                      "cursorScale" : {
                        "type" : "double",
                        "defaultValue" : 1.0,
                        "interp" : "linr"
                      },
                      "cursorOpacity" : {
                        "type" : "double",
                        "defaultValue" : 1.0,
                        "interp" : "linr"
                      }
                    },
                    "effects" : [

                    ],
                    "start" : 421,
                    "duration" : 290,
                    "mediaStart" : 271,
                    "mediaDuration" : 290,
                    "scalar" : 1,
                    "metadata" : {
                      "clipSpeedAttribute" : false,
                      "default-scale" : "1",
                      "effectApplied" : "none",
                      "lockAspectRatio" : true
                    },
                    "animationTracks" : {

                    }
                  },
                  {
                    "id" : 13,
                    "_type" : "IMFile",
                    "src" : 3,
                    "trackNumber" : 0,
                    "trimStartSum" : 0,
                    "attributes" : {
                      "ident" : "frame"
                    },
                    "parameters" : {
                      "sourceCrop0" : {
                        "type" : "double",
                        "defaultValue" : 0.0,
                        "interp" : "eioe"
                      },
                      "sourceCrop1" : {
                        "type" : "double",
                        "defaultValue" : 0.0,
                        "interp" : "eioe"
                      },
                      "sourceCrop2" : {
                        "type" : "double",
                        "defaultValue" : 0.0,
                        "interp" : "eioe"
                      },
                      "sourceCrop3" : {
                        "type" : "double",
                        "defaultValue" : 0.0,
                        "interp" : "eioe"
                      },
                      "geometryCrop0" : {
                        "type" : "double",
                        "defaultValue" : 0.0,
                        "interp" : "eioe"
                      },
                      "geometryCrop1" : {
                        "type" : "double",
                        "defaultValue" : 0.0,
                        "interp" : "eioe"
                      },
                      "geometryCrop2" : {
                        "type" : "double",
                        "defaultValue" : 0.0,
                        "interp" : "eioe"
                      },
                      "geometryCrop3" : {
                        "type" : "double",
                        "defaultValue" : 0.0,
                        "interp" : "eioe"
                      }
                    },
                    "effects" : [

                    ],
                    "start" : 711,
                    "duration" : 150,
                    "mediaStart" : 0,
                    "mediaDuration" : 1,
                    "scalar" : 1,
                    "metadata" : {
                      "clipSpeedAttribute" : false,
                      "default-scale" : "1",
                      "effectApplied" : "none",
                      "lockAspectRatio" : true
                    },
                    "animationTracks" : {

                    }
                  },
                  {
                    "id" : 14,
                    "_type" : "ScreenVMFile",
                    "src" : 1,
                    "trackNumber" : 0,
                    "attributes" : {
                      "ident" : "Rec 6-20-2022 2"
                    },
                    "parameters" : {
                      "sourceCrop0" : {
                        "type" : "double",
                        "defaultValue" : 0.0,
                        "interp" : "eioe"
                      },
                      "sourceCrop1" : {
                        "type" : "double",
                        "defaultValue" : 0.0,
                        "interp" : "eioe"
                      },
                      "sourceCrop2" : {
                        "type" : "double",
                        "defaultValue" : 0.0,
                        "interp" : "eioe"
                      },
                      "sourceCrop3" : {
                        "type" : "double",
                        "defaultValue" : 0.0,
                        "interp" : "eioe"
                      },
                      "geometryCrop0" : {
                        "type" : "double",
                        "defaultValue" : 0.0,
                        "interp" : "eioe"
                      },
                      "geometryCrop1" : {
                        "type" : "double",
                        "defaultValue" : 0.0,
                        "interp" : "eioe"
                      },
                      "geometryCrop2" : {
                        "type" : "double",
                        "defaultValue" : 0.0,
                        "interp" : "eioe"
                      },
                      "geometryCrop3" : {
                        "type" : "double",
                        "defaultValue" : 0.0,
                        "interp" : "eioe"
                      },
                      "cursorScale" : {
                        "type" : "double",
                        "defaultValue" : 1.0,
                        "interp" : "linr"
                      },
                      "cursorOpacity" : {
                        "type" : "double",
                        "defaultValue" : 1.0,
                        "interp" : "linr"
                      }
                    },
                    "effects" : [

                    ],
                    "start" : 861,
                    "duration" : 35,
                    "mediaStart" : 561,
                    "mediaDuration" : 35,
                    "scalar" : 1,
                    "metadata" : {
                      "clipSpeedAttribute" : false,
                      "default-scale" : "1",
                      "effectApplied" : "none",
                      "lockAspectRatio" : true
                    },
                    "animationTracks" : {

                    }
                  },
                  {
                    "id" : 15,
                    "_type" : "IMFile",
                    "src" : 4,
                    "trackNumber" : 0,
                    "trimStartSum" : 0,
                    "attributes" : {
                      "ident" : "frame"
                    },
                    "parameters" : {
                      "sourceCrop0" : {
                        "type" : "double",
                        "defaultValue" : 0.0,
                        "interp" : "eioe"
                      },
                      "sourceCrop1" : {
                        "type" : "double",
                        "defaultValue" : 0.0,
                        "interp" : "eioe"
                      },
                      "sourceCrop2" : {
                        "type" : "double",
                        "defaultValue" : 0.0,
                        "interp" : "eioe"
                      },
                      "sourceCrop3" : {
                        "type" : "double",
                        "defaultValue" : 0.0,
                        "interp" : "eioe"
                      },
                      "geometryCrop0" : {
                        "type" : "double",
                        "defaultValue" : 0.0,
                        "interp" : "eioe"
                      },
                      "geometryCrop1" : {
                        "type" : "double",
                        "defaultValue" : 0.0,
                        "interp" : "eioe"
                      },
                      "geometryCrop2" : {
                        "type" : "double",
                        "defaultValue" : 0.0,
                        "interp" : "eioe"
                      },
                      "geometryCrop3" : {
                        "type" : "double",
                        "defaultValue" : 0.0,
                        "interp" : "eioe"
                      }
                    },
                    "effects" : [

                    ],
                    "start" : 896,
                    "duration" : 150,
                    "mediaStart" : 0,
                    "mediaDuration" : 1,
                    "scalar" : 1,
                    "metadata" : {
                      "clipSpeedAttribute" : false,
                      "default-scale" : "1",
                      "effectApplied" : "none",
                      "lockAspectRatio" : true
                    },
                    "animationTracks" : {

                    }
                  },
                  {
                    "id" : 16,
                    "_type" : "ScreenVMFile",
                    "src" : 1,
                    "trackNumber" : 0,
                    "attributes" : {
                      "ident" : "Rec 6-20-2022 2"
                    },
                    "parameters" : {
                      "sourceCrop0" : {
                        "type" : "double",
                        "defaultValue" : 0.0,
                        "interp" : "eioe"
                      },
                      "sourceCrop1" : {
                        "type" : "double",
                        "defaultValue" : 0.0,
                        "interp" : "eioe"
                      },
                      "sourceCrop2" : {
                        "type" : "double",
                        "defaultValue" : 0.0,
                        "interp" : "eioe"
                      },
                      "sourceCrop3" : {
                        "type" : "double",
                        "defaultValue" : 0.0,
                        "interp" : "eioe"
                      },
                      "geometryCrop0" : {
                        "type" : "double",
                        "defaultValue" : 0.0,
                        "interp" : "eioe"
                      },
                      "geometryCrop1" : {
                        "type" : "double",
                        "defaultValue" : 0.0,
                        "interp" : "eioe"
                      },
                      "geometryCrop2" : {
                        "type" : "double",
                        "defaultValue" : 0.0,
                        "interp" : "eioe"
                      },
                      "geometryCrop3" : {
                        "type" : "double",
                        "defaultValue" : 0.0,
                        "interp" : "eioe"
                      },
                      "cursorScale" : {
                        "type" : "double",
                        "defaultValue" : 1.0,
                        "interp" : "linr"
                      },
                      "cursorOpacity" : {
                        "type" : "double",
                        "defaultValue" : 1.0,
                        "interp" : "linr"
                      }
                    },
                    "effects" : [

                    ],
                    "start" : 1046,
                    "duration" : 292,
                    "mediaStart" : 596,
                    "mediaDuration" : 292,
                    "scalar" : 1,
                    "metadata" : {
                      "clipSpeedAttribute" : false,
                      "default-scale" : "1",
                      "effectApplied" : "none",
                      "lockAspectRatio" : true
                    },
                    "animationTracks" : {

                    }
                  },
                  {
                    "id" : 17,
                    "_type" : "IMFile",
                    "src" : 5,
                    "trackNumber" : 0,
                    "trimStartSum" : 0,
                    "attributes" : {
                      "ident" : "frame"
                    },
                    "parameters" : {
                      "sourceCrop0" : {
                        "type" : "double",
                        "defaultValue" : 0.0,
                        "interp" : "eioe"
                      },
                      "sourceCrop1" : {
                        "type" : "double",
                        "defaultValue" : 0.0,
                        "interp" : "eioe"
                      },
                      "sourceCrop2" : {
                        "type" : "double",
                        "defaultValue" : 0.0,
                        "interp" : "eioe"
                      },
                      "sourceCrop3" : {
                        "type" : "double",
                        "defaultValue" : 0.0,
                        "interp" : "eioe"
                      },
                      "geometryCrop0" : {
                        "type" : "double",
                        "defaultValue" : 0.0,
                        "interp" : "eioe"
                      },
                      "geometryCrop1" : {
                        "type" : "double",
                        "defaultValue" : 0.0,
                        "interp" : "eioe"
                      },
                      "geometryCrop2" : {
                        "type" : "double",
                        "defaultValue" : 0.0,
                        "interp" : "eioe"
                      },
                      "geometryCrop3" : {
                        "type" : "double",
                        "defaultValue" : 0.0,
                        "interp" : "eioe"
                      }
                    },
                    "effects" : [

                    ],
                    "start" : 1338,
                    "duration" : 150,
                    "mediaStart" : 0,
                    "mediaDuration" : 1,
                    "scalar" : 1,
                    "metadata" : {
                      "clipSpeedAttribute" : false,
                      "default-scale" : "1",
                      "effectApplied" : "none",
                      "lockAspectRatio" : true
                    },
                    "animationTracks" : {

                    }
                  },
                  {
                    "id" : 18,
                    "_type" : "ScreenVMFile",
                    "src" : 1,
                    "trackNumber" : 0,
                    "attributes" : {
                      "ident" : "Rec 6-20-2022 2"
                    },
                    "parameters" : {
                      "sourceCrop0" : {
                        "type" : "double",
                        "defaultValue" : 0.0,
                        "interp" : "eioe"
                      },
                      "sourceCrop1" : {
                        "type" : "double",
                        "defaultValue" : 0.0,
                        "interp" : "eioe"
                      },
                      "sourceCrop2" : {
                        "type" : "double",
                        "defaultValue" : 0.0,
                        "interp" : "eioe"
                      },
                      "sourceCrop3" : {
                        "type" : "double",
                        "defaultValue" : 0.0,
                        "interp" : "eioe"
                      },
                      "geometryCrop0" : {
                        "type" : "double",
                        "defaultValue" : 0.0,
                        "interp" : "eioe"
                      },
                      "geometryCrop1" : {
                        "type" : "double",
                        "defaultValue" : 0.0,
                        "interp" : "eioe"
                      },
                      "geometryCrop2" : {
                        "type" : "double",
                        "defaultValue" : 0.0,
                        "interp" : "eioe"
                      },
                      "geometryCrop3" : {
                        "type" : "double",
                        "defaultValue" : 0.0,
                        "interp" : "eioe"
                      },
                      "cursorScale" : {
                        "type" : "double",
                        "defaultValue" : 1.0,
                        "interp" : "linr"
                      },
                      "cursorOpacity" : {
                        "type" : "double",
                        "defaultValue" : 1.0,
                        "interp" : "linr"
                      }
                    },
                    "effects" : [

                    ],
                    "start" : 1488,
                    "duration" : 365,
                    "mediaStart" : 888,
                    "mediaDuration" : 365,
                    "scalar" : 1,
                    "metadata" : {
                      "clipSpeedAttribute" : false,
                      "default-scale" : "1",
                      "effectApplied" : "none",
                      "lockAspectRatio" : true
                    },
                    "animationTracks" : {

                    }
                  },
                  {
                    "id" : 19,
                    "_type" : "IMFile",
                    "src" : 6,
                    "trackNumber" : 0,
                    "trimStartSum" : 0,
                    "attributes" : {
                      "ident" : "frame"
                    },
                    "parameters" : {
                      "sourceCrop0" : {
                        "type" : "double",
                        "defaultValue" : 0.0,
                        "interp" : "eioe"
                      },
                      "sourceCrop1" : {
                        "type" : "double",
                        "defaultValue" : 0.0,
                        "interp" : "eioe"
                      },
                      "sourceCrop2" : {
                        "type" : "double",
                        "defaultValue" : 0.0,
                        "interp" : "eioe"
                      },
                      "sourceCrop3" : {
                        "type" : "double",
                        "defaultValue" : 0.0,
                        "interp" : "eioe"
                      },
                      "geometryCrop0" : {
                        "type" : "double",
                        "defaultValue" : 0.0,
                        "interp" : "eioe"
                      },
                      "geometryCrop1" : {
                        "type" : "double",
                        "defaultValue" : 0.0,
                        "interp" : "eioe"
                      },
                      "geometryCrop2" : {
                        "type" : "double",
                        "defaultValue" : 0.0,
                        "interp" : "eioe"
                      },
                      "geometryCrop3" : {
                        "type" : "double",
                        "defaultValue" : 0.0,
                        "interp" : "eioe"
                      }
                    },
                    "effects" : [

                    ],
                    "start" : 1853,
                    "duration" : 150,
                    "mediaStart" : 0,
                    "mediaDuration" : 1,
                    "scalar" : 1,
                    "metadata" : {
                      "clipSpeedAttribute" : false,
                      "default-scale" : "1",
                      "effectApplied" : "none",
                      "lockAspectRatio" : true
                    },
                    "animationTracks" : {

                    }
                  },
                  {
                    "id" : 20,
                    "_type" : "ScreenVMFile",
                    "src" : 1,
                    "trackNumber" : 0,
                    "attributes" : {
                      "ident" : "Rec 6-20-2022 2"
                    },
                    "parameters" : {
                      "sourceCrop0" : {
                        "type" : "double",
                        "defaultValue" : 0.0,
                        "interp" : "eioe"
                      },
                      "sourceCrop1" : {
                        "type" : "double",
                        "defaultValue" : 0.0,
                        "interp" : "eioe"
                      },
                      "sourceCrop2" : {
                        "type" : "double",
                        "defaultValue" : 0.0,
                        "interp" : "eioe"
                      },
                      "sourceCrop3" : {
                        "type" : "double",
                        "defaultValue" : 0.0,
                        "interp" : "eioe"
                      },
                      "geometryCrop0" : {
                        "type" : "double",
                        "defaultValue" : 0.0,
                        "interp" : "eioe"
                      },
                      "geometryCrop1" : {
                        "type" : "double",
                        "defaultValue" : 0.0,
                        "interp" : "eioe"
                      },
                      "geometryCrop2" : {
                        "type" : "double",
                        "defaultValue" : 0.0,
                        "interp" : "eioe"
                      },
                      "geometryCrop3" : {
                        "type" : "double",
                        "defaultValue" : 0.0,
                        "interp" : "eioe"
                      },
                      "cursorScale" : {
                        "type" : "double",
                        "defaultValue" : 1.0,
                        "interp" : "linr"
                      },
                      "cursorOpacity" : {
                        "type" : "double",
                        "defaultValue" : 1.0,
                        "interp" : "linr"
                      }
                    },
                    "effects" : [

                    ],
                    "start" : 2003,
                    "duration" : 184,
                    "mediaStart" : 1253,
                    "mediaDuration" : 184,
                    "scalar" : 1,
                    "metadata" : {
                      "clipSpeedAttribute" : false,
                      "default-scale" : "1",
                      "effectApplied" : "none",
                      "lockAspectRatio" : true
                    },
                    "animationTracks" : {

                    }
                  },
                  {
                    "id" : 21,
                    "_type" : "IMFile",
                    "src" : 7,
                    "trackNumber" : 0,
                    "trimStartSum" : 0,
                    "attributes" : {
                      "ident" : "frame"
                    },
                    "parameters" : {
                      "sourceCrop0" : {
                        "type" : "double",
                        "defaultValue" : 0.0,
                        "interp" : "eioe"
                      },
                      "sourceCrop1" : {
                        "type" : "double",
                        "defaultValue" : 0.0,
                        "interp" : "eioe"
                      },
                      "sourceCrop2" : {
                        "type" : "double",
                        "defaultValue" : 0.0,
                        "interp" : "eioe"
                      },
                      "sourceCrop3" : {
                        "type" : "double",
                        "defaultValue" : 0.0,
                        "interp" : "eioe"
                      },
                      "geometryCrop0" : {
                        "type" : "double",
                        "defaultValue" : 0.0,
                        "interp" : "eioe"
                      },
                      "geometryCrop1" : {
                        "type" : "double",
                        "defaultValue" : 0.0,
                        "interp" : "eioe"
                      },
                      "geometryCrop2" : {
                        "type" : "double",
                        "defaultValue" : 0.0,
                        "interp" : "eioe"
                      },
                      "geometryCrop3" : {
                        "type" : "double",
                        "defaultValue" : 0.0,
                        "interp" : "eioe"
                      }
                    },
                    "effects" : [

                    ],
                    "start" : 2187,
                    "duration" : 150,
                    "mediaStart" : 0,
                    "mediaDuration" : 1,
                    "scalar" : 1,
                    "metadata" : {
                      "clipSpeedAttribute" : false,
                      "default-scale" : "1",
                      "effectApplied" : "none",
                      "lockAspectRatio" : true
                    },
                    "animationTracks" : {

                    }
                  },
                  {
                    "id" : 22,
                    "_type" : "ScreenVMFile",
                    "src" : 1,
                    "trackNumber" : 0,
                    "attributes" : {
                      "ident" : "Rec 6-20-2022 2"
                    },
                    "parameters" : {
                      "sourceCrop0" : {
                        "type" : "double",
                        "defaultValue" : 0.0,
                        "interp" : "eioe"
                      },
                      "sourceCrop1" : {
                        "type" : "double",
                        "defaultValue" : 0.0,
                        "interp" : "eioe"
                      },
                      "sourceCrop2" : {
                        "type" : "double",
                        "defaultValue" : 0.0,
                        "interp" : "eioe"
                      },
                      "sourceCrop3" : {
                        "type" : "double",
                        "defaultValue" : 0.0,
                        "interp" : "eioe"
                      },
                      "geometryCrop0" : {
                        "type" : "double",
                        "defaultValue" : 0.0,
                        "interp" : "eioe"
                      },
                      "geometryCrop1" : {
                        "type" : "double",
                        "defaultValue" : 0.0,
                        "interp" : "eioe"
                      },
                      "geometryCrop2" : {
                        "type" : "double",
                        "defaultValue" : 0.0,
                        "interp" : "eioe"
                      },
                      "geometryCrop3" : {
                        "type" : "double",
                        "defaultValue" : 0.0,
                        "interp" : "eioe"
                      },
                      "cursorScale" : {
                        "type" : "double",
                        "defaultValue" : 1.0,
                        "interp" : "linr"
                      },
                      "cursorOpacity" : {
                        "type" : "double",
                        "defaultValue" : 1.0,
                        "interp" : "linr"
                      }
                    },
                    "effects" : [

                    ],
                    "start" : 2337,
                    "duration" : 638,
                    "mediaStart" : 1437,
                    "mediaDuration" : 638,
                    "scalar" : 1,
                    "metadata" : {
                      "clipSpeedAttribute" : false,
                      "default-scale" : "1",
                      "effectApplied" : "none",
                      "lockAspectRatio" : true
                    },
                    "animationTracks" : {

                    }
                  },
                  {
                    "id" : 23,
                    "_type" : "IMFile",
                    "src" : 8,
                    "trackNumber" : 0,
                    "trimStartSum" : 0,
                    "attributes" : {
                      "ident" : "frame"
                    },
                    "parameters" : {
                      "sourceCrop0" : {
                        "type" : "double",
                        "defaultValue" : 0.0,
                        "interp" : "eioe"
                      },
                      "sourceCrop1" : {
                        "type" : "double",
                        "defaultValue" : 0.0,
                        "interp" : "eioe"
                      },
                      "sourceCrop2" : {
                        "type" : "double",
                        "defaultValue" : 0.0,
                        "interp" : "eioe"
                      },
                      "sourceCrop3" : {
                        "type" : "double",
                        "defaultValue" : 0.0,
                        "interp" : "eioe"
                      },
                      "geometryCrop0" : {
                        "type" : "double",
                        "defaultValue" : 0.0,
                        "interp" : "eioe"
                      },
                      "geometryCrop1" : {
                        "type" : "double",
                        "defaultValue" : 0.0,
                        "interp" : "eioe"
                      },
                      "geometryCrop2" : {
                        "type" : "double",
                        "defaultValue" : 0.0,
                        "interp" : "eioe"
                      },
                      "geometryCrop3" : {
                        "type" : "double",
                        "defaultValue" : 0.0,
                        "interp" : "eioe"
                      }
                    },
                    "effects" : [

                    ],
                    "start" : 2975,
                    "duration" : 150,
                    "mediaStart" : 0,
                    "mediaDuration" : 1,
                    "scalar" : 1,
                    "metadata" : {
                      "clipSpeedAttribute" : false,
                      "default-scale" : "1",
                      "effectApplied" : "none",
                      "lockAspectRatio" : true
                    },
                    "animationTracks" : {

                    }
                  },
                  {
                    "id" : 24,
                    "_type" : "ScreenVMFile",
                    "src" : 1,
                    "trackNumber" : 0,
                    "attributes" : {
                      "ident" : "Rec 6-20-2022 2"
                    },
                    "parameters" : {
                      "sourceCrop0" : {
                        "type" : "double",
                        "defaultValue" : 0.0,
                        "interp" : "eioe"
                      },
                      "sourceCrop1" : {
                        "type" : "double",
                        "defaultValue" : 0.0,
                        "interp" : "eioe"
                      },
                      "sourceCrop2" : {
                        "type" : "double",
                        "defaultValue" : 0.0,
                        "interp" : "eioe"
                      },
                      "sourceCrop3" : {
                        "type" : "double",
                        "defaultValue" : 0.0,
                        "interp" : "eioe"
                      },
                      "geometryCrop0" : {
                        "type" : "double",
                        "defaultValue" : 0.0,
                        "interp" : "eioe"
                      },
                      "geometryCrop1" : {
                        "type" : "double",
                        "defaultValue" : 0.0,
                        "interp" : "eioe"
                      },
                      "geometryCrop2" : {
                        "type" : "double",
                        "defaultValue" : 0.0,
                        "interp" : "eioe"
                      },
                      "geometryCrop3" : {
                        "type" : "double",
                        "defaultValue" : 0.0,
                        "interp" : "eioe"
                      },
                      "cursorScale" : {
                        "type" : "double",
                        "defaultValue" : 1.0,
                        "interp" : "linr"
                      },
                      "cursorOpacity" : {
                        "type" : "double",
                        "defaultValue" : 1.0,
                        "interp" : "linr"
                      }
                    },
                    "effects" : [

                    ],
                    "start" : 3125,
                    "duration" : 327,
                    "mediaStart" : 2075,
                    "mediaDuration" : 327,
                    "scalar" : 1,
                    "metadata" : {
                      "clipSpeedAttribute" : false,
                      "default-scale" : "1",
                      "effectApplied" : "none",
                      "lockAspectRatio" : true
                    },
                    "animationTracks" : {

                    }
                  }
                ]
              },
              {
                "trackIndex" : 1,
                "medias" : [
                  {
                    "id" : 25,
                    "_type" : "Callout",
                    "def" : {
                      "kind" : "TypeWinSpotlight",
                      "shape" : "",
                      "style" : "",
                      "height" : 270.0,
                      "intensity" : 0.5,
                      "width" : 480.0
                    },
                    "attributes" : {
                      "autoRotateText" : true
                    },
                    "parameters" : {
                      "translation0" : -744.936904887096,
                      "translation1" : 211.061256659215,
                      "scale0" : 0.716929562970432,
                      "scale1" : 0.211936560664677,
                      "sourceCrop0" : 0.0,
                      "sourceCrop1" : 0.0,
                      "sourceCrop2" : 0.0,
                      "sourceCrop3" : 0.0,
                      "geometryCrop0" : 0.0,
                      "geometryCrop1" : 0.0,
                      "geometryCrop2" : 0.0,
                      "geometryCrop3" : 0.0
                    },
                    "effects" : [

                    ],
                    "start" : 271,
                    "duration" : 150,
                    "mediaStart" : 0,
                    "mediaDuration" : 150,
                    "scalar" : 1,
                    "metadata" : {
                      "AppliedThemeId" : "",
                      "clipSpeedAttribute" : false,
                      "default-scale" : "1",
                      "effectApplied" : "none"
                    },
                    "animationTracks" : {

                    }
                  },
                  {
                    "id" : 26,
                    "_type" : "Callout",
                    "def" : {
                      "kind" : "TypeWinSpotlight",
                      "shape" : "",
                      "style" : "",
                      "height" : 270.0,
                      "intensity" : 0.5,
                      "width" : 480.0
                    },
                    "attributes" : {
                      "autoRotateText" : true
                    },
                    "parameters" : {
                      "translation0" : -80.0032441764463,
                      "translation1" : 209.592767338532,
                      "rotation2" : 6.28663787693995e-15,
                      "scale0" : 0.428968955895934,
                      "scale1" : 0.528942464159015,
                      "sourceCrop0" : 0.0,
                      "sourceCrop1" : 0.0,
                      "sourceCrop2" : 0.0,
                      "sourceCrop3" : 0.0,
                      "geometryCrop0" : 0.0,
                      "geometryCrop1" : 0.0,
                      "geometryCrop2" : 0.0,
                      "geometryCrop3" : 0.0
                    },
                    "effects" : [

                    ],
                    "start" : 711,
                    "duration" : 150,
                    "mediaStart" : 0,
                    "mediaDuration" : 150,
                    "scalar" : 1,
                    "metadata" : {
                      "AppliedThemeId" : "",
                      "clipSpeedAttribute" : false,
                      "default-scale" : "1",
                      "effectApplied" : "none"
                    },
                    "animationTracks" : {

                    }
                  },
                  {
                    "id" : 27,
                    "_type" : "Callout",
                    "def" : {
                      "kind" : "remix",
                      "shape" : "text-rectangle",
                      "style" : "bold",
                      "fill-color-blue" : 0.0,
                      "fill-color-green" : 0.0,
                      "fill-color-opacity" : 1.0,
                      "fill-color-red" : 1.0,
                      "height" : 273.842867137524,
                      "line-spacing" : 0.0,
                      "stroke-color-blue" : 1.0,
                      "stroke-color-green" : 1.0,
                      "stroke-color-opacity" : 1.0,
                      "stroke-color-red" : 1.0,
                      "stroke-width" : 0.0,
                      "tail-x" : -134.560984141768,
                      "tail-y" : 16.9214335687622,
                      "width" : 569.121968283536,
                      "word-wrap" : 1.0,
                      "fill-style" : "solid",
                      "horizontal-alignment" : "center",
                      "resize-behavior" : "resizeText",
                      "stroke-style" : "solid",
                      "text" : "Klicken und Ziehen",
                      "vertical-alignment" : "center",
                      "font" : {
                        "color-blue" : 1.0,
                        "color-green" : 1.0,
                        "color-red" : 1.0,
                        "size" : 70.0,
                        "tracking" : 0.0,
                        "name" : "Source Sans Pro",
                        "weight" : "Semi Bold"
                      },
                      "textAttributes" : {
                        "type" : "textAttributeList",
                        "keyframes" : [
                          {
                            "endTime" : 0,
                            "time" : 0,
                            "value" : [{"name":"fontWeight","rangeEnd":18,"rangeStart":0,"value":400,"valueType":"int"},{"name":"fontName","rangeEnd":18,"rangeStart":0,"value":"Helvetica Neue","valueType":"string"},{"name":"fgColor","rangeEnd":18,"rangeStart":0,"value":"(255,255,255,255)","valueType":"color"},{"name":"underline","rangeEnd":18,"rangeStart":0,"value":0,"valueType":"int"},{"name":"strikethrough","rangeEnd":18,"rangeStart":0,"value":0,"valueType":"int"},{"name":"kerning","rangeEnd":18,"rangeStart":0,"value":0,"valueType":"double"},{"name":"fontItalic","rangeEnd":18,"rangeStart":0,"value":0,"valueType":"int"},{"name":"fontSize","rangeEnd":18,"rangeStart":0,"value":70,"valueType":"double"}],
                            "duration" : 0
                          }
                        ]
                      }
                    },
                    "attributes" : {
                      "autoRotateText" : true
                    },
                    "parameters" : {
                      "translation0" : 413.763934235051,
                      "translation1" : -41.4438882595937,
                      "sourceCrop0" : 0.0,
                      "sourceCrop1" : 0.0,
                      "sourceCrop2" : 0.0,
                      "sourceCrop3" : 0.0,
                      "geometryCrop0" : 0.0,
                      "geometryCrop1" : 0.0,
                      "geometryCrop2" : 0.0,
                      "geometryCrop3" : 0.0
                    },
                    "effects" : [

                    ],
                    "start" : 896,
                    "duration" : 150,
                    "mediaStart" : 0,
                    "mediaDuration" : 150,
                    "scalar" : 1,
                    "metadata" : {
                      "AppliedThemeId" : "",
                      "clipSpeedAttribute" : false,
                      "default-callout-fill-color" : "(30,90,226,255)",
                      "default-scale" : "1",
                      "default-text" : "{\\rtf1\\ansi\\ansicpg1252\\cocoartf2638\n\\cocoatextscaling0\\cocoaplatform0{\\fonttbl\\f0\\fnil\\fcharset0 SourceSansPro-SemiBold;}\n{\\colortbl;\\red255\\green255\\blue255;\\red255\\green255\\blue255;}\n{\\*\\expandedcolortbl;;\\cssrgb\\c100000\\c100000\\c100000;}\n\\pard\\tx560\\tx1120\\tx1680\\tx2240\\tx2800\\tx3360\\tx3920\\tx4480\\tx5040\\tx5600\\tx6160\\tx6720\\pardirnatural\\qc\\partightenfactor0\n\n\\f0\\b\\fs140 \\cf2 \\expnd0\\expndtw0\\kerning0\n\\ulnone ABC}",
                      "effectApplied" : "none"
                    },
                    "animationTracks" : {

                    }
                  },
                  {
                    "id" : 28,
                    "_type" : "Callout",
                    "def" : {
                      "kind" : "TypeWinSpotlight",
                      "shape" : "",
                      "style" : "",
                      "height" : 270.0,
                      "intensity" : 0.5,
                      "width" : 480.0
                    },
                    "attributes" : {
                      "autoRotateText" : true
                    },
                    "parameters" : {
                      "translation0" : -760.543059481034,
                      "translation1" : 248.495581858506,
                      "scale0" : 0.651903918829027,
                      "scale1" : 0.174656925926414,
                      "sourceCrop0" : 0.0,
                      "sourceCrop1" : 0.0,
                      "sourceCrop2" : 0.0,
                      "sourceCrop3" : 0.0,
                      "geometryCrop0" : 0.0,
                      "geometryCrop1" : 0.0,
                      "geometryCrop2" : 0.0,
                      "geometryCrop3" : 0.0
                    },
                    "effects" : [

                    ],
                    "start" : 1338,
                    "duration" : 150,
                    "mediaStart" : 0,
                    "mediaDuration" : 150,
                    "scalar" : 1,
                    "metadata" : {
                      "AppliedThemeId" : "",
                      "clipSpeedAttribute" : false,
                      "default-scale" : "1",
                      "effectApplied" : "none"
                    },
                    "animationTracks" : {

                    }
                  },
                  {
                    "id" : 29,
                    "_type" : "Callout",
                    "def" : {
                      "kind" : "remix",
                      "shape" : "text-rectangle",
                      "style" : "bold",
                      "fill-color-blue" : {
                        "type" : "double",
                        "defaultValue" : 0.0,
                        "interp" : "linr"
                      },
                      "fill-color-green" : {
                        "type" : "double",
                        "defaultValue" : 0.0,
                        "interp" : "linr"
                      },
                      "fill-color-opacity" : {
                        "type" : "double",
                        "defaultValue" : 1.0,
                        "interp" : "linr"
                      },
                      "fill-color-red" : {
                        "type" : "double",
                        "defaultValue" : 1.0,
                        "interp" : "linr"
                      },
                      "height" : {
                        "type" : "double",
                        "defaultValue" : 273.842867137524,
                        "interp" : "linr"
                      },
                      "line-spacing" : {
                        "type" : "double",
                        "defaultValue" : 0.0,
                        "interp" : "linr"
                      },
                      "stroke-color-blue" : {
                        "type" : "double",
                        "defaultValue" : 1.0,
                        "interp" : "linr"
                      },
                      "stroke-color-green" : {
                        "type" : "double",
                        "defaultValue" : 1.0,
                        "interp" : "linr"
                      },
                      "stroke-color-opacity" : {
                        "type" : "double",
                        "defaultValue" : 1.0,
                        "interp" : "linr"
                      },
                      "stroke-color-red" : {
                        "type" : "double",
                        "defaultValue" : 1.0,
                        "interp" : "linr"
                      },
                      "stroke-width" : {
                        "type" : "double",
                        "defaultValue" : 0.0,
                        "interp" : "linr"
                      },
                      "tail-x" : {
                        "type" : "double",
                        "defaultValue" : -134.560984141768,
                        "interp" : "linr"
                      },
                      "tail-y" : {
                        "type" : "double",
                        "defaultValue" : 16.9214335687622,
                        "interp" : "linr"
                      },
                      "width" : {
                        "type" : "double",
                        "defaultValue" : 569.121968283536,
                        "interp" : "linr"
                      },
                      "word-wrap" : {
                        "type" : "double",
                        "defaultValue" : 1.0,
                        "interp" : "linr"
                      },
                      "fill-style" : "solid",
                      "horizontal-alignment" : "center",
                      "resize-behavior" : "resizeText",
                      "stroke-style" : "solid",
                      "text" : "Klicken und Ziehen",
                      "vertical-alignment" : "center",
                      "font" : {
                        "color-blue" : {
                          "type" : "double",
                          "defaultValue" : 1.0,
                          "interp" : "linr"
                        },
                        "color-green" : {
                          "type" : "double",
                          "defaultValue" : 1.0,
                          "interp" : "linr"
                        },
                        "color-red" : {
                          "type" : "double",
                          "defaultValue" : 1.0,
                          "interp" : "linr"
                        },
                        "size" : {
                          "type" : "double",
                          "defaultValue" : 70.0,
                          "interp" : "linr"
                        },
                        "tracking" : {
                          "type" : "double",
                          "defaultValue" : 0.0,
                          "interp" : "linr"
                        },
                        "name" : "Source Sans Pro",
                        "weight" : "Semi Bold"
                      },
                      "textAttributes" : {
                        "type" : "textAttributeList",
                        "keyframes" : [
                          {
                            "endTime" : 0,
                            "time" : 0,
                            "value" : [{"name":"fontWeight","rangeEnd":18,"rangeStart":0,"value":400,"valueType":"int"},{"name":"fontName","rangeEnd":18,"rangeStart":0,"value":"Helvetica Neue","valueType":"string"},{"name":"fgColor","rangeEnd":18,"rangeStart":0,"value":"(255,255,255,255)","valueType":"color"},{"name":"underline","rangeEnd":18,"rangeStart":0,"value":0,"valueType":"int"},{"name":"strikethrough","rangeEnd":18,"rangeStart":0,"value":0,"valueType":"int"},{"name":"kerning","rangeEnd":18,"rangeStart":0,"value":0,"valueType":"double"},{"name":"fontItalic","rangeEnd":18,"rangeStart":0,"value":0,"valueType":"int"},{"name":"fontSize","rangeEnd":18,"rangeStart":0,"value":70,"valueType":"double"}],
                            "duration" : 0
                          }
                        ]
                      }
                    },
                    "attributes" : {
                      "autoRotateText" : true
                    },
                    "parameters" : {
                      "translation0" : {
                        "type" : "double",
                        "defaultValue" : 413.763934235051,
                        "interp" : "eioe"
                      },
                      "translation1" : {
                        "type" : "double",
                        "defaultValue" : 182.556111740406,
                        "interp" : "eioe"
                      },
                      "sourceCrop0" : {
                        "type" : "double",
                        "defaultValue" : 0.0,
                        "interp" : "eioe"
                      },
                      "sourceCrop1" : {
                        "type" : "double",
                        "defaultValue" : 0.0,
                        "interp" : "eioe"
                      },
                      "sourceCrop2" : {
                        "type" : "double",
                        "defaultValue" : 0.0,
                        "interp" : "eioe"
                      },
                      "sourceCrop3" : {
                        "type" : "double",
                        "defaultValue" : 0.0,
                        "interp" : "eioe"
                      },
                      "geometryCrop0" : {
                        "type" : "double",
                        "defaultValue" : 0.0,
                        "interp" : "eioe"
                      },
                      "geometryCrop1" : {
                        "type" : "double",
                        "defaultValue" : 0.0,
                        "interp" : "eioe"
                      },
                      "geometryCrop2" : {
                        "type" : "double",
                        "defaultValue" : 0.0,
                        "interp" : "eioe"
                      },
                      "geometryCrop3" : {
                        "type" : "double",
                        "defaultValue" : 0.0,
                        "interp" : "eioe"
                      }
                    },
                    "effects" : [

                    ],
                    "start" : 1566,
                    "duration" : 150,
                    "mediaStart" : 0,
                    "mediaDuration" : 150,
                    "scalar" : 1,
                    "metadata" : {
                      "AppliedThemeId" : "",
                      "clipSpeedAttribute" : false,
                      "default-callout-fill-color" : "(30,90,226,255)",
                      "default-scale" : "1",
                      "default-text" : "{\\rtf1\\ansi\\ansicpg1252\\cocoartf2638\n\\cocoatextscaling0\\cocoaplatform0{\\fonttbl\\f0\\fnil\\fcharset0 SourceSansPro-SemiBold;}\n{\\colortbl;\\red255\\green255\\blue255;\\red255\\green255\\blue255;}\n{\\*\\expandedcolortbl;;\\cssrgb\\c100000\\c100000\\c100000;}\n\\pard\\tx560\\tx1120\\tx1680\\tx2240\\tx2800\\tx3360\\tx3920\\tx4480\\tx5040\\tx5600\\tx6160\\tx6720\\pardirnatural\\qc\\partightenfactor0\n\n\\f0\\b\\fs140 \\cf2 \\expnd0\\expndtw0\\kerning0\n\\ulnone ABC}",
                      "effectApplied" : "none"
                    },
                    "animationTracks" : {

                    }
                  },
                  {
                    "id" : 30,
                    "_type" : "Callout",
                    "def" : {
                      "kind" : "TypeWinSpotlight",
                      "shape" : "",
                      "style" : "",
                      "height" : 270.0,
                      "intensity" : 0.5,
                      "width" : 480.0
                    },
                    "attributes" : {
                      "autoRotateText" : true
                    },
                    "parameters" : {
                      "translation0" : -714.674671436453,
                      "translation1" : 320.343820876917,
                      "scale0" : 0.844953602823416,
                      "scale1" : 0.291830992003888,
                      "sourceCrop0" : 0.0,
                      "sourceCrop1" : 0.0,
                      "sourceCrop2" : 0.0,
                      "sourceCrop3" : 0.0,
                      "geometryCrop0" : 0.0,
                      "geometryCrop1" : 0.0,
                      "geometryCrop2" : 0.0,
                      "geometryCrop3" : 0.0
                    },
                    "effects" : [

                    ],
                    "start" : 1853,
                    "duration" : 150,
                    "mediaStart" : 0,
                    "mediaDuration" : 150,
                    "scalar" : 1,
                    "metadata" : {
                      "AppliedThemeId" : "",
                      "clipSpeedAttribute" : false,
                      "default-scale" : "1",
                      "effectApplied" : "none"
                    },
                    "animationTracks" : {

                    }
                  },
                  {
                    "id" : 31,
                    "_type" : "Callout",
                    "def" : {
                      "kind" : "TypeWinSpotlight",
                      "shape" : "",
                      "style" : "",
                      "height" : 270.0,
                      "intensity" : 0.5,
                      "width" : 480.0
                    },
                    "attributes" : {
                      "autoRotateText" : true
                    },
                    "parameters" : {
                      "translation0" : -40.1568781273539,
                      "translation1" : 260.752679876509,
                      "scale0" : 0.434553983007934,
                      "scale1" : 0.424054223136971,
                      "sourceCrop0" : 0.0,
                      "sourceCrop1" : 0.0,
                      "sourceCrop2" : 0.0,
                      "sourceCrop3" : 0.0,
                      "geometryCrop0" : 0.0,
                      "geometryCrop1" : 0.0,
                      "geometryCrop2" : 0.0,
                      "geometryCrop3" : 0.0
                    },
                    "effects" : [

                    ],
                    "start" : 2187,
                    "duration" : 150,
                    "mediaStart" : 0,
                    "mediaDuration" : 150,
                    "scalar" : 1,
                    "metadata" : {
                      "AppliedThemeId" : "",
                      "clipSpeedAttribute" : false,
                      "default-scale" : "1",
                      "effectApplied" : "none"
                    },
                    "animationTracks" : {

                    }
                  },
                  {
                    "id" : 32,
                    "_type" : "Callout",
                    "def" : {
                      "kind" : "remix",
                      "shape" : "text-rectangle",
                      "style" : "bold",
                      "fill-color-blue" : {
                        "type" : "double",
                        "defaultValue" : 0.0,
                        "interp" : "linr"
                      },
                      "fill-color-green" : {
                        "type" : "double",
                        "defaultValue" : 0.0,
                        "interp" : "linr"
                      },
                      "fill-color-opacity" : {
                        "type" : "double",
                        "defaultValue" : 1.0,
                        "interp" : "linr"
                      },
                      "fill-color-red" : {
                        "type" : "double",
                        "defaultValue" : 1.0,
                        "interp" : "linr"
                      },
                      "height" : {
                        "type" : "double",
                        "defaultValue" : 273.842867137524,
                        "interp" : "linr"
                      },
                      "line-spacing" : {
                        "type" : "double",
                        "defaultValue" : 0.0,
                        "interp" : "linr"
                      },
                      "stroke-color-blue" : {
                        "type" : "double",
                        "defaultValue" : 1.0,
                        "interp" : "linr"
                      },
                      "stroke-color-green" : {
                        "type" : "double",
                        "defaultValue" : 1.0,
                        "interp" : "linr"
                      },
                      "stroke-color-opacity" : {
                        "type" : "double",
                        "defaultValue" : 1.0,
                        "interp" : "linr"
                      },
                      "stroke-color-red" : {
                        "type" : "double",
                        "defaultValue" : 1.0,
                        "interp" : "linr"
                      },
                      "stroke-width" : {
                        "type" : "double",
                        "defaultValue" : 0.0,
                        "interp" : "linr"
                      },
                      "tail-x" : {
                        "type" : "double",
                        "defaultValue" : -134.560984141768,
                        "interp" : "linr"
                      },
                      "tail-y" : {
                        "type" : "double",
                        "defaultValue" : 16.9214335687622,
                        "interp" : "linr"
                      },
                      "width" : {
                        "type" : "double",
                        "defaultValue" : 569.121968283536,
                        "interp" : "linr"
                      },
                      "word-wrap" : {
                        "type" : "double",
                        "defaultValue" : 1.0,
                        "interp" : "linr"
                      },
                      "fill-style" : "solid",
                      "horizontal-alignment" : "center",
                      "resize-behavior" : "resizeText",
                      "stroke-style" : "solid",
                      "text" : "Klicken und Ziehen",
                      "vertical-alignment" : "center",
                      "font" : {
                        "color-blue" : {
                          "type" : "double",
                          "defaultValue" : 1.0,
                          "interp" : "linr"
                        },
                        "color-green" : {
                          "type" : "double",
                          "defaultValue" : 1.0,
                          "interp" : "linr"
                        },
                        "color-red" : {
                          "type" : "double",
                          "defaultValue" : 1.0,
                          "interp" : "linr"
                        },
                        "size" : {
                          "type" : "double",
                          "defaultValue" : 70.0,
                          "interp" : "linr"
                        },
                        "tracking" : {
                          "type" : "double",
                          "defaultValue" : 0.0,
                          "interp" : "linr"
                        },
                        "name" : "Source Sans Pro",
                        "weight" : "Semi Bold"
                      },
                      "textAttributes" : {
                        "type" : "textAttributeList",
                        "keyframes" : [
                          {
                            "endTime" : 0,
                            "time" : 0,
                            "value" : [{"name":"fontWeight","rangeEnd":18,"rangeStart":0,"value":400,"valueType":"int"},{"name":"fontName","rangeEnd":18,"rangeStart":0,"value":"Helvetica Neue","valueType":"string"},{"name":"fgColor","rangeEnd":18,"rangeStart":0,"value":"(255,255,255,255)","valueType":"color"},{"name":"underline","rangeEnd":18,"rangeStart":0,"value":0,"valueType":"int"},{"name":"strikethrough","rangeEnd":18,"rangeStart":0,"value":0,"valueType":"int"},{"name":"kerning","rangeEnd":18,"rangeStart":0,"value":0,"valueType":"double"},{"name":"fontItalic","rangeEnd":18,"rangeStart":0,"value":0,"valueType":"int"},{"name":"fontSize","rangeEnd":18,"rangeStart":0,"value":70,"valueType":"double"}],
                            "duration" : 0
                          }
                        ]
                      }
                    },
                    "attributes" : {
                      "autoRotateText" : true
                    },
                    "parameters" : {
                      "translation0" : {
                        "type" : "double",
                        "defaultValue" : 550.763934235051,
                        "interp" : "eioe"
                      },
                      "translation1" : {
                        "type" : "double",
                        "defaultValue" : 137.556111740406,
                        "interp" : "eioe"
                      },
                      "sourceCrop0" : {
                        "type" : "double",
                        "defaultValue" : 0.0,
                        "interp" : "eioe"
                      },
                      "sourceCrop1" : {
                        "type" : "double",
                        "defaultValue" : 0.0,
                        "interp" : "eioe"
                      },
                      "sourceCrop2" : {
                        "type" : "double",
                        "defaultValue" : 0.0,
                        "interp" : "eioe"
                      },
                      "sourceCrop3" : {
                        "type" : "double",
                        "defaultValue" : 0.0,
                        "interp" : "eioe"
                      },
                      "geometryCrop0" : {
                        "type" : "double",
                        "defaultValue" : 0.0,
                        "interp" : "eioe"
                      },
                      "geometryCrop1" : {
                        "type" : "double",
                        "defaultValue" : 0.0,
                        "interp" : "eioe"
                      },
                      "geometryCrop2" : {
                        "type" : "double",
                        "defaultValue" : 0.0,
                        "interp" : "eioe"
                      },
                      "geometryCrop3" : {
                        "type" : "double",
                        "defaultValue" : 0.0,
                        "interp" : "eioe"
                      }
                    },
                    "effects" : [

                    ],
                    "start" : 2424,
                    "duration" : 150,
                    "mediaStart" : 0,
                    "mediaDuration" : 150,
                    "scalar" : 1,
                    "metadata" : {
                      "AppliedThemeId" : "",
                      "clipSpeedAttribute" : false,
                      "default-callout-fill-color" : "(30,90,226,255)",
                      "default-scale" : "1",
                      "default-text" : "{\\rtf1\\ansi\\ansicpg1252\\cocoartf2638\n\\cocoatextscaling0\\cocoaplatform0{\\fonttbl\\f0\\fnil\\fcharset0 SourceSansPro-SemiBold;}\n{\\colortbl;\\red255\\green255\\blue255;\\red255\\green255\\blue255;}\n{\\*\\expandedcolortbl;;\\cssrgb\\c100000\\c100000\\c100000;}\n\\pard\\tx560\\tx1120\\tx1680\\tx2240\\tx2800\\tx3360\\tx3920\\tx4480\\tx5040\\tx5600\\tx6160\\tx6720\\pardirnatural\\qc\\partightenfactor0\n\n\\f0\\b\\fs140 \\cf2 \\expnd0\\expndtw0\\kerning0\n\\ulnone ABC}",
                      "effectApplied" : "none"
                    },
                    "animationTracks" : {

                    }
                  },
                  {
                    "id" : 33,
                    "_type" : "Callout",
                    "def" : {
                      "kind" : "remix",
                      "shape" : "text-rectangle",
                      "style" : "bold",
                      "fill-color-blue" : 0.0,
                      "fill-color-green" : 0.0,
                      "fill-color-opacity" : 1.0,
                      "fill-color-red" : 1.0,
                      "hasDropShadow" : 0.0,
                      "height" : 200.0,
                      "line-spacing" : 0.0,
                      "savedXScale" : 1.0,
                      "savedYScale" : 1.0,
                      "stroke-color-blue" : 1.0,
                      "stroke-color-green" : 1.0,
                      "stroke-color-opacity" : 1.0,
                      "stroke-color-red" : 1.0,
                      "stroke-width" : 0.0,
                      "tail-x" : -234.064915378425,
                      "tail-y" : -20.0,
                      "width" : 768.129830756849,
                      "word-wrap" : 1.0,
                      "custom" : "Y",
                      "fill-style" : "solid",
                      "horizontal-alignment" : "center",
                      "resize-behavior" : "resizeText",
                      "stroke-style" : "solid",
                      "text" : "Blöcke verbinden",
                      "vertical-alignment" : "center",
                      "font" : {
                        "color-blue" : 1.0,
                        "color-green" : 1.0,
                        "color-red" : 1.0,
                        "size" : 70.0,
                        "tracking" : 0.0,
                        "name" : "Source Sans Pro",
                        "weight" : "Semi Bold"
                      },
                      "textAttributes" : {
                        "type" : "textAttributeList",
                        "keyframes" : [
                          {
                            "endTime" : 0,
                            "time" : 0,
                            "value" : [{"name":"fontName","rangeEnd":17,"rangeStart":0,"value":"Helvetica Neue","valueType":"string"},{"name":"underline","rangeEnd":17,"rangeStart":0,"value":0,"valueType":"int"},{"name":"strikethrough","rangeEnd":17,"rangeStart":0,"value":0,"valueType":"int"},{"name":"fontWeight","rangeEnd":17,"rangeStart":0,"value":400,"valueType":"int"},{"name":"fontSize","rangeEnd":17,"rangeStart":0,"value":70,"valueType":"double"},{"name":"fontItalic","rangeEnd":17,"rangeStart":0,"value":0,"valueType":"int"},{"name":"kerning","rangeEnd":17,"rangeStart":0,"value":0,"valueType":"double"},{"name":"fgColor","rangeEnd":17,"rangeStart":0,"value":"(255,255,255,255)","valueType":"color"}],
                            "duration" : 0
                          }
                        ]
                      }
                    },
                    "attributes" : {
                      "autoRotateText" : true
                    },
                    "parameters" : {
                      "translation0" : -188.935084621575,
                      "translation1" : -41.0,
                      "sourceCrop0" : 0.0,
                      "sourceCrop1" : 0.0,
                      "sourceCrop2" : 0.0,
                      "sourceCrop3" : 0.0,
                      "geometryCrop0" : 0.0,
                      "geometryCrop1" : 0.0,
                      "geometryCrop2" : 0.0,
                      "geometryCrop3" : 0.0
                    },
                    "effects" : [

                    ],
                    "start" : 2657,
                    "duration" : 150,
                    "mediaStart" : 0,
                    "mediaDuration" : 150,
                    "scalar" : 1,
                    "metadata" : {
                      "AppliedThemeId" : "",
                      "clipSpeedAttribute" : false,
                      "default-scale" : "1",
                      "effectApplied" : "none"
                    },
                    "animationTracks" : {

                    }
                  },
                  {
                    "id" : 34,
                    "_type" : "Callout",
                    "def" : {
                      "kind" : "remix",
                      "shape" : "text-rectangle",
                      "style" : "bold",
                      "fill-color-blue" : 0.0,
                      "fill-color-green" : 0.0,
                      "fill-color-opacity" : 1.0,
                      "fill-color-red" : 1.0,
                      "hasDropShadow" : 0.0,
                      "height" : 200.0,
                      "line-spacing" : 0.0,
                      "savedXScale" : 1.0,
                      "savedYScale" : 1.0,
                      "stroke-color-blue" : 1.0,
                      "stroke-color-green" : 1.0,
                      "stroke-color-opacity" : 1.0,
                      "stroke-color-red" : 1.0,
                      "stroke-width" : 0.0,
                      "tail-x" : 0.0,
                      "tail-y" : -20.0,
                      "width" : 300.0,
                      "word-wrap" : 1.0,
                      "custom" : "Y",
                      "fill-style" : "solid",
                      "horizontal-alignment" : "center",
                      "resize-behavior" : "resizeText",
                      "stroke-style" : "solid",
                      "text" : "Gain erhöhen",
                      "vertical-alignment" : "center",
                      "font" : {
                        "color-blue" : 1.0,
                        "color-green" : 1.0,
                        "color-red" : 1.0,
                        "size" : 70.0,
                        "tracking" : 0.0,
                        "name" : "Source Sans Pro",
                        "weight" : "Semi Bold"
                      },
                      "textAttributes" : {
                        "type" : "textAttributeList",
                        "keyframes" : [
                          {
                            "endTime" : 0,
                            "time" : 0,
                            "value" : [{"name":"strikethrough","rangeEnd":13,"rangeStart":0,"value":0,"valueType":"int"},{"name":"underline","rangeEnd":13,"rangeStart":0,"value":0,"valueType":"int"},{"name":"fontName","rangeEnd":13,"rangeStart":0,"value":"Helvetica Neue","valueType":"string"},{"name":"fontSize","rangeEnd":13,"rangeStart":0,"value":70,"valueType":"double"},{"name":"kerning","rangeEnd":13,"rangeStart":0,"value":0,"valueType":"double"},{"name":"fgColor","rangeEnd":13,"rangeStart":0,"value":"(255,255,255,255)","valueType":"color"},{"name":"fontWeight","rangeEnd":13,"rangeStart":0,"value":400,"valueType":"int"},{"name":"fontItalic","rangeEnd":13,"rangeStart":0,"value":0,"valueType":"int"}],
                            "duration" : 0
                          }
                        ]
                      }
                    },
                    "attributes" : {
                      "autoRotateText" : true
                    },
                    "parameters" : {
                      "translation0" : -230.0,
                      "sourceCrop0" : 0.0,
                      "sourceCrop1" : 0.0,
                      "sourceCrop2" : 0.0,
                      "sourceCrop3" : 0.0,
                      "geometryCrop0" : 0.0,
                      "geometryCrop1" : 0.0,
                      "geometryCrop2" : 0.0,
                      "geometryCrop3" : 0.0
                    },
                    "effects" : [

                    ],
                    "start" : 2975,
                    "duration" : 150,
                    "mediaStart" : 0,
                    "mediaDuration" : 150,
                    "scalar" : 1,
                    "metadata" : {
                      "AppliedThemeId" : "",
                      "clipSpeedAttribute" : false,
                      "default-scale" : "1",
                      "effectApplied" : "none"
                    },
                    "animationTracks" : {

                    }
                  }
                ]
              }            ]
          }
        }
      ]
    },
    "trackAttributes" : [
      {
        "ident" : "",
        "audioMuted" : false,
        "videoHidden" : false,
        "magnetic" : false,
        "matte" : 0,
        "solo" : false,
        "metadata" : {
          "IsLocked" : "False",
          "trackHeight" : "54"
        }
      },
      {
        "ident" : "",
        "audioMuted" : false,
        "videoHidden" : false,
        "magnetic" : false,
        "matte" : 0,
        "solo" : false,
        "metadata" : {
          "IsLocked" : "False",
          "trackHeight" : "54"
        }
      }
    ],
    "captionAttributes" : {
      "enabled" : true,
      "fontName" : "Arial",
      "fontSize" : 32,
      "backgroundColor" : [ 0, 0, 0, 204],
      "foregroundColor" : [ 255, 255, 255, 255],
      "lang" : "en",
      "alignment" : 0,
      "defaultFontSize" : true,
      "opacity" : 0.5,
      "backgroundEnabled" : true,
      "backgroundOnlyAroundText" : true
    },
    "backgroundColor" : [ 0, 0, 0, 255],
    "metadata" : {
      "RecordingHeight" : "1080",
      "RecordingWidth" : "1920"
    }
  },
  "metadata" : {
    "activeThemeId" : "e59eeb42-ccf0-4a36-bdf9-e630fdab686d",
    "firstMedia" : true,
    "hasNotifiedAboutHFRMedia" : false
  }
}
